<svg width="446" height="433" viewBox="0 0 446 433" fill="none" xmlns="http://www.w3.org/2000/svg">
<path d="M430.693 246.706C424.365 217.452 421.642 187.441 423.801 157.506C424.855 142.98 427.505 128.859 430.325 114.611C433.048 100.894 435.673 86.6715 434.25 72.6259C432.877 59.2624 427.946 46.884 418.845 37.1329C410.702 28.4176 400.031 22.38 388.87 18.8181C361.519 10.0522 332.574 17.6813 306.009 25.7651C292.149 29.9838 278.29 34.4299 264.014 36.9561C251.258 39.2044 237.914 39.356 225.6 37.0066C201.708 32.4595 179.68 21.319 157.138 12.4521C134.668 3.61042 110.85 -2.95768 86.6881 1.36211C64.7339 5.2777 44.9139 18.4897 30.4413 35.6678C14.914 54.0837 4.95492 76.8447 1.56982 100.97C-2.42853 129.617 1.49623 158.744 10.1062 186.128C14.4234 199.895 20.0898 213.057 26.0015 226.168C31.4471 238.243 37.1134 250.975 38.2173 264.414C39.2966 277.753 35.1265 290.055 30.196 302.257C25.241 314.534 20.0407 326.609 18.4463 339.947C15.7235 362.759 23.8919 386.303 38.3644 403.506C45.5517 412.045 54.6277 419.068 64.7339 423.514C77.563 429.172 91.4714 431.32 105.38 431.092C133.785 430.637 160.817 420.987 188.781 417.324C199.5 415.935 210.392 415.405 221.111 416.819C244.954 422.655 268.993 427.934 293.376 430.739C313.735 433.063 334.414 433.543 354.847 432.33C379.941 430.84 405.967 422.074 423.261 402.42C439.549 383.903 445.853 358.287 445.877 333.758C445.926 304.075 436.899 275.403 430.693 246.706Z" fill="url(#paint0_linear)" fill-opacity="0.44"/>
<path d="M167.44 16.6456C164.006 15.2056 160.572 13.8162 157.138 12.4521C134.668 3.61042 110.85 -2.95768 86.6881 1.36211C76.729 3.13044 67.2115 6.84394 58.4298 11.9468V223.414H167.44V16.6456Z" fill="#FFD7D7"/>
<path d="M387.987 18.5402C360.882 10.2291 332.305 17.7571 306.009 25.7651C297.031 28.4934 288.053 31.3227 278.952 33.6721V223.414H387.963V18.5402H387.987Z" fill="#FFD7D7"/>
<path d="M426.523 223.743C426.523 223.667 426.499 223.616 426.499 223.54C426.352 222.479 426.18 221.393 426.033 220.332H392.697V20.1569C392.059 19.9296 391.421 19.677 390.783 19.4749H390.759C390.121 19.2475 389.483 19.0454 388.846 18.8433C388.404 18.6917 387.963 18.5654 387.521 18.4391H387.496C387.055 18.3128 386.638 18.1865 386.196 18.0602V28.5439L297.031 28.5439C289.794 30.7417 282.534 32.8637 275.199 34.632V220.383H170.678V18.0097C168.519 17.1002 166.361 16.1908 164.202 15.3066V28.4934H59.6563V11.2142C59.1657 11.4921 58.6751 11.77 58.1846 12.0731C58.111 12.1236 58.0374 12.1489 57.9638 12.1994C57.4732 12.4773 56.9826 12.7805 56.5165 13.0836C56.4675 13.1089 56.3939 13.1594 56.3448 13.1846C55.8297 13.4878 55.3391 13.8162 54.8485 14.1193C54.824 14.1446 54.7994 14.1446 54.7749 14.1699C54.2598 14.4983 53.7447 14.8519 53.2295 15.1803V220.307H23.3768C24.2354 222.252 25.1184 224.223 25.977 226.168C26.0996 226.446 26.2223 226.698 26.3449 226.976H426.989C426.842 225.915 426.671 224.829 426.523 223.743ZM164.202 220.332H59.6563V171.804H164.202V220.332ZM164.202 166.929H59.6563V125.676H164.202V166.929ZM164.202 120.775H59.6563V79.5224H164.202V120.775ZM164.202 74.6469H59.6563V33.3942H164.202V74.6469ZM386.245 220.332H281.7V171.804H386.245V220.332ZM386.245 166.929H281.7V125.676H386.245V166.929ZM386.245 120.775H281.7V79.5224H386.245V120.775ZM386.245 74.6469H281.7V33.3942H386.245V74.6469Z" fill="#F46C6C"/>
<path d="M444.504 312.488C444.381 311.452 444.234 310.441 444.111 309.431H436.335V291.116H440.898C440.677 290.08 440.481 289.07 440.26 288.059H414.16V269.744H436.065C435.158 265.93 434.25 262.141 433.343 258.326V266.662H389.459V248.348H431.061C430.939 247.792 430.816 247.236 430.693 246.68C430.595 246.226 430.497 245.746 430.399 245.291H414.136V226.824H411.143V245.291H367.259V226.824H364.267V245.291H320.383V226.824H317.39V245.291H273.507V226.824H270.514V245.291H226.63V226.824H223.638V245.291H179.828V226.824H176.835V245.291H132.951V226.824H129.983V245.291H86.0994V226.824H83.1068V245.291H39.223V226.824H36.2304V245.291H33.9001C34.2435 246.301 34.5869 247.337 34.9058 248.348H58.4053V266.662H38.3154C38.5607 272.826 37.7022 278.763 36.2059 284.598V288.034H35.2983C35.0039 289.07 34.685 290.08 34.3416 291.091H58.4298V309.406H27.3015C26.8845 310.416 26.4921 311.452 26.0996 312.462H36.2549V330.777H20.1389C19.8936 331.788 19.6728 332.823 19.452 333.834H58.4298V352.3H61.4224V333.834H105.306V352.3H108.299V333.834H152.183V352.3H155.175V333.834H199.059V352.3H202.052V333.834H245.935V352.3H248.928V333.834H292.812V352.3H295.804V333.834H339.688V352.3H342.681V333.834H386.564V352.3H389.557V333.834H433.441V352.3H436.433V333.834H446C446 333.809 446 333.758 446 333.733C446 332.748 446 331.762 445.975 330.777H414.258V312.488H444.504ZM411.168 269.744V288.059H367.284V269.744H411.168ZM86.0994 288.059V269.744H129.983V288.059H86.0994ZM105.282 291.116V309.431H61.3979V291.116H105.282ZM108.274 291.116H152.158V309.431H108.274V291.116ZM132.951 288.059V269.744H176.835V288.059H132.951ZM155.151 291.116H199.034V309.431H155.151V291.116ZM179.828 288.059V269.744H223.711V288.059H179.828ZM202.002 291.116H245.886V309.431H202.002V291.116ZM226.679 288.059V269.744H270.563V288.059H226.679ZM248.879 291.116H292.763V309.431H248.879V291.116ZM273.556 288.059V269.744H317.44V288.059H273.556ZM295.731 291.116H339.614V309.431H295.731V291.116ZM320.408 288.059V269.744H364.291V288.059H320.408ZM342.607 291.116H386.491V309.431H342.607V291.116ZM342.607 248.373H386.491V266.688H342.607V248.373ZM295.731 248.373H339.614V266.688H295.731V248.373ZM248.879 248.373H292.763V266.688H248.879V248.373ZM202.002 248.373H245.886V266.688H202.002V248.373ZM155.151 248.373H199.034V266.688H155.151V248.373ZM108.274 248.373H152.158V266.688H108.274V248.373ZM61.3979 248.373H105.282V266.688H61.3979V248.373ZM39.223 288.059V269.744H83.1068V288.059H39.223ZM83.1068 330.802H39.223V312.488H83.1068V330.802ZM129.983 330.802H86.0994V312.488H129.983V330.802ZM176.835 330.802H132.951V312.488H176.835V330.802ZM223.711 330.802H179.828V312.488H223.711V330.802ZM270.563 330.802H226.679V312.488H270.563V330.802ZM317.44 330.802H273.556V312.488H317.44V330.802ZM364.291 330.802H320.408V312.488H364.291V330.802ZM411.168 330.802H367.284V312.488H411.168V330.802ZM389.459 309.431V291.116H433.343V309.431H389.459Z" fill="#FFC0C0"/>
<path d="M18.0048 352.3C18.8633 371.045 26.4921 389.41 38.3645 403.532C45.5517 412.07 54.6277 419.093 64.734 423.539C77.563 429.198 91.4714 431.345 105.38 431.117C133.785 430.663 160.817 421.013 188.781 417.35C199.5 415.96 210.392 415.43 221.111 416.845C244.954 422.68 268.993 427.96 293.376 430.764C313.736 433.088 334.414 433.568 354.847 432.355C379.941 430.865 405.967 422.099 423.261 402.445C435.501 388.526 442.124 370.59 444.651 352.149C353.572 352.25 99.419 352.553 18.0048 352.3Z" fill="#252C63"/>
<path d="M309.418 364.628C308.78 363.946 307.897 363.542 306.965 363.542H232.542H158.119C157.187 363.542 156.303 363.921 155.666 364.628L126.672 395.675C125.519 396.913 126.377 398.984 128.045 398.984H232.542H337.039C338.707 398.984 339.565 396.913 338.412 395.675L309.418 364.628Z" fill="#1E254C"/>
<path d="M307.946 359.576C307.309 358.894 306.426 358.49 305.494 358.49H231.046H156.622C155.69 358.49 154.807 358.869 154.169 359.576L125.175 390.623C124.022 391.861 124.881 393.932 126.549 393.932H231.046H335.542C337.21 393.932 338.069 391.861 336.916 390.623L307.946 359.576Z" fill="url(#paint1_radial)"/>
<path d="M222.534 94.5027L211.962 108.725L211.618 116.582C211.618 116.582 212.967 126.004 214.071 126.206C215.175 126.408 218.83 124.362 222.068 125.55C225.306 126.737 230.531 128.202 232.567 127.015C234.578 125.827 238.773 126.383 240.563 125.752C242.354 125.12 244.096 120.169 244.096 120.169C244.096 120.169 240.882 105.188 240.784 104.986C240.686 104.784 234.431 98.8477 234.333 98.5446C234.235 98.2414 233.204 92.5323 233.204 92.5323C233.204 92.5323 228.715 90.4608 228.127 90.4608C227.538 90.4355 222.534 94.5027 222.534 94.5027Z" fill="#1E254C"/>
<path d="M254.006 140.555C254.006 140.555 256.606 136.69 255.232 129.617C253.711 121.786 248.683 127.091 248.413 127.823C248.143 128.556 252.043 139.545 252.043 139.545L254.006 140.555Z" fill="#7CB0E8"/>
<path d="M202.051 140.656C202.051 140.656 200.285 138.534 200.85 134.113C201.414 129.692 206.467 121.887 206.467 121.887L208.625 133.987L202.051 140.656Z" fill="#7CB0E8"/>
<path d="M245.494 173.295C245.494 173.295 235.289 183.374 228.078 179.787C221.528 176.553 213.801 178.195 210.661 171.678L230.432 166.247L243.997 167.257L245.494 173.295Z" fill="#7CB0E8"/>
<path d="M214.439 133.911C214.439 133.911 210.907 130.349 208.135 125.297C205.486 120.447 199.574 105.694 199.01 103.799C198.446 101.904 210.024 89.9808 213.409 86.1663C216.99 82.1496 223.662 71.0849 226.802 69.3924C229.991 67.6746 228.053 52.0122 227.808 49.6881C227.562 47.364 226.434 47.7176 226.066 50.1175C225.698 52.5174 224.57 65.0978 222.117 67.4219C217.113 72.0954 209.754 76.9457 206.663 79.674C203.572 82.4022 187.285 95.4374 187.285 101.601C187.285 106.906 192.141 119.941 195.649 126.888C199.795 135.149 210.907 151.014 210.907 151.014L219.958 140.934L214.439 133.911Z" fill="url(#paint2_linear)"/>
<path d="M240.759 133.911C240.759 133.911 244.292 130.349 247.064 125.297C249.713 120.447 255.624 105.694 256.189 103.799C256.753 101.904 245.175 89.9808 241.79 86.1663C238.208 82.1496 231.536 71.0849 228.396 69.3924C225.208 67.6746 227.145 52.0122 227.391 49.6881C227.636 47.364 228.764 47.7177 229.132 50.1175C229.5 52.5174 230.629 65.0978 233.082 67.4219C238.086 72.0954 245.445 76.9457 248.535 79.674C251.626 82.4022 267.914 95.4374 267.914 101.601C267.914 106.906 263.057 119.941 259.549 126.888C255.404 135.149 244.292 151.014 244.292 151.014L235.24 140.934L240.759 133.911Z" fill="url(#paint3_linear)"/>
<path d="M205.535 200.476C205.535 200.476 186.99 212.501 179.263 216.669C171.536 220.837 155.347 230.589 154.047 235.237C152.722 239.885 152.722 245.67 163.098 246.756C173.474 247.842 199.991 243.876 205.559 244.457C211.127 245.038 217.603 248.398 218.83 252.465C220.056 256.532 221.724 265.551 223.613 265.551C225.502 265.551 225.968 263.783 225.502 260.296C225.036 256.81 228.053 235.211 222.607 234.807C217.137 234.428 216.475 236.853 210.171 236.449C203.867 236.07 181.373 233.367 181.765 233.014C182.133 232.66 206.001 228.037 214.218 224.298C222.141 220.686 226.091 218.16 226.091 218.16L234.406 210.657L205.535 200.476Z" fill="url(#paint4_linear)"/>
<path d="M220.964 118.249C220.964 118.249 222.853 128.151 220.964 129.895C219.075 131.638 215.199 132.118 212.992 132.345C210.073 132.648 212.575 139.898 210.514 144.85C208.454 149.801 206.835 154.55 208.92 157.354C211.005 160.158 215.567 169.101 214.881 175.492C214.194 181.884 209.484 195.272 205.535 200.527C205.535 200.527 222.485 214.092 223.417 218.766C224.349 223.439 226.091 280.001 227.023 288.337C227.955 296.674 224.006 347.879 224.398 354.877C224.766 361.849 219.885 369.428 222.902 370.59C225.919 371.752 241.348 372.535 240.048 370.59C238.748 368.645 230.898 361.268 230.825 357.605C230.531 345.858 238.674 335.703 240.563 317.54C243.311 291.141 238.503 281.592 242.697 266.839C245.567 256.735 250.498 229.603 250.13 210.581C249.762 191.584 242.575 186.355 242.133 175.113C241.716 163.872 247.603 160.31 246.475 153.464C245.347 146.618 242.992 131.436 242.992 131.436C242.992 131.436 234.431 131.991 233.425 128.379C232.419 124.766 232.297 117.264 232.297 117.264L220.964 118.249Z" fill="url(#paint5_linear)"/>
<path d="M240.392 95.9931C238.797 86.8483 227.783 87.1262 227.783 87.1262C227.783 87.1262 216.769 86.9241 215.224 96.0942C213.924 103.875 216.328 103.193 215.813 108.371C215.322 113.222 221.405 123.705 227.881 123.68C234.382 123.655 240.392 113.146 239.876 108.296C239.312 103.117 241.741 103.774 240.392 95.9931Z" fill="url(#paint6_linear)"/>
<path d="M250.105 210.531C249.86 198.051 246.671 191.534 244.39 185.319C244.316 185.344 244.243 185.395 244.194 185.42C230.899 192.519 212.477 185.42 212.452 185.42C210.563 191.18 207.914 197.293 205.535 200.451C205.535 200.451 222.485 214.017 223.417 218.69C224.349 223.364 226.091 279.925 227.023 288.261C227.636 293.718 226.164 317.515 225.159 335.299C229.598 336.385 233.499 335.956 236.491 335.147C238.208 330.045 239.803 324.335 240.514 317.439C243.262 291.04 238.454 281.491 242.648 266.738C245.543 256.709 250.473 229.553 250.105 210.531Z" fill="url(#paint7_linear)"/>
<path d="M199.427 235.439C193.515 234.731 181.545 233.216 181.741 233.014C182.109 232.66 205.976 228.037 214.194 224.298C222.117 220.686 226.066 218.16 226.066 218.16L234.382 210.657L205.535 200.476C205.535 200.476 186.99 212.501 179.263 216.669C171.536 220.837 155.347 230.588 154.047 235.237C152.722 239.885 152.722 245.67 163.098 246.756C169.991 247.463 188.732 245.569 199.01 244.659C200.408 240.794 199.795 237.687 199.427 235.439Z" fill="url(#paint8_linear)"/>
<path d="M244.39 185.344C244.316 185.37 244.243 185.42 244.194 185.445C230.898 192.544 212.477 185.445 212.452 185.445C211.667 187.795 210.784 190.22 209.827 192.468C216.377 195.576 233.131 201.841 246.941 192.165C246.082 189.69 245.199 187.492 244.39 185.344Z" fill="#5766CE"/>
<path d="M240.539 317.489C240.809 314.786 241.029 312.26 241.152 309.886C241.029 310.012 240.882 310.138 240.759 310.29C239.68 311.351 238.552 312.361 237.374 313.347C237.301 313.397 236.663 313.902 236.712 313.877C236.516 314.029 236.32 314.18 236.099 314.332C235.486 314.786 234.872 315.241 234.259 315.671C231.855 317.338 229.329 318.803 226.704 320.066C226.434 320.193 226.213 320.294 226.017 320.395C225.894 322.744 225.747 325.119 225.625 327.417C230.923 325.346 235.903 322.491 240.367 318.955C240.441 318.449 240.49 317.969 240.539 317.489Z" fill="#B8E5FC"/>
<path d="M189.983 234.252C187.015 233.873 184.317 233.494 182.845 233.266C182.845 233.772 182.992 234.302 183.262 234.807C183.703 235.616 184.12 236.424 184.513 237.258C184.709 237.662 184.881 238.091 185.077 238.521C185.126 238.647 185.175 238.748 185.2 238.799C185.273 238.975 185.347 239.178 185.42 239.354C186.058 241.022 186.598 242.714 187.015 244.432C187.113 244.861 187.211 245.291 187.309 245.746C189.468 245.569 191.553 245.367 193.515 245.19C192.779 241.375 191.602 237.712 189.983 234.252Z" fill="#B8E5FC"/>
<path d="M238.993 326.609C239.288 325.321 239.582 324.007 239.827 322.618C235.51 326.078 230.629 328.781 225.453 330.575C225.404 331.56 225.33 332.545 225.281 333.505C230.138 331.914 234.774 329.59 238.993 326.609Z" fill="#7CB0E8"/>
<path d="M195.232 234.908C194.227 234.782 193.172 234.656 192.117 234.504C193.736 237.813 194.962 241.325 195.796 244.912C196.729 244.836 197.612 244.735 198.446 244.685C197.71 241.325 196.63 238.066 195.232 234.908Z" fill="#7CB0E8"/>
<path d="M251.381 130.855C249.002 128.429 248.658 122.038 248.658 122.038C248.658 122.038 244.243 131.739 239.607 131.335C239.018 131.284 238.405 131.208 237.791 131.082C227.881 141.742 216.549 132.092 216.279 131.84C216.279 131.84 216.279 131.84 216.254 131.84C214.684 132.168 213.09 131.562 212.06 130.299C210.318 128.126 207.62 124.564 206.442 121.861C206.442 121.861 206.442 128.253 204.161 130.804C201.389 133.911 201.733 137.928 202.027 140.631C202.027 140.631 204.627 143.258 206.786 146.163C208.012 147.831 208.503 150.003 208.037 152.049C207.718 153.413 207.595 154.828 207.914 155.965C208.773 158.87 211.324 164.049 210.637 171.678C213.85 175.164 222.583 171.981 226.581 171.476C233.499 170.617 242.869 172.714 245.494 173.295C246.009 165.16 247.873 160.259 247.481 154.803C247.407 153.843 247.505 152.858 247.775 151.923C247.8 151.822 247.824 151.721 247.849 151.67C248.609 148.235 254.006 140.555 254.006 140.555C254.153 137.827 254.275 133.785 251.381 130.855Z" fill="url(#paint9_linear)"/>
<path d="M216.647 161.295C217.338 161.295 217.898 160.718 217.898 160.007C217.898 159.295 217.338 158.718 216.647 158.718C215.956 158.718 215.396 159.295 215.396 160.007C215.396 160.718 215.956 161.295 216.647 161.295Z" fill="white"/>
<path d="M211.913 164.706C211.913 163.998 211.348 163.417 210.662 163.417C210.514 163.417 210.343 163.443 210.22 163.493C210.367 164.276 210.514 165.11 210.613 165.969C210.637 165.969 210.662 165.969 210.662 165.969C211.348 165.994 211.913 165.413 211.913 164.706Z" fill="white"/>
<path d="M209.827 155.561C209.827 154.853 209.263 154.272 208.576 154.272C208.258 154.272 207.963 154.399 207.742 154.601C207.742 155.081 207.816 155.536 207.939 155.965C208.012 156.218 208.11 156.495 208.209 156.799C208.331 156.824 208.454 156.849 208.576 156.849C209.263 156.849 209.827 156.268 209.827 155.561Z" fill="white"/>
<path d="M240.809 132.547C241.495 132.547 242.06 131.966 242.06 131.259C242.06 131.082 242.01 130.905 241.961 130.728C241.201 131.158 240.416 131.385 239.607 131.309H239.582C239.582 132.017 240.122 132.547 240.809 132.547Z" fill="white"/>
<path d="M208.601 137.524C209.292 137.524 209.852 136.947 209.852 136.235C209.852 135.524 209.292 134.947 208.601 134.947C207.91 134.947 207.35 135.524 207.35 136.235C207.35 136.947 207.91 137.524 208.601 137.524Z" fill="white"/>
<path d="M227.832 171.375C227.832 171.324 227.832 171.274 227.832 171.248C227.832 170.541 227.268 169.96 226.581 169.96C225.894 169.96 225.33 170.541 225.33 171.248C225.33 171.4 225.355 171.552 225.404 171.703C225.821 171.627 226.213 171.552 226.581 171.501C226.998 171.425 227.415 171.4 227.832 171.375Z" fill="white"/>
<path d="M217.383 172.006C216.696 172.006 216.132 172.587 216.132 173.269C216.941 173.244 217.775 173.143 218.609 173.017C218.486 172.461 217.971 172.006 217.383 172.006Z" fill="white"/>
<path d="M211.054 144.067C211.745 144.067 212.305 143.49 212.305 142.778C212.305 142.067 211.745 141.49 211.054 141.49C210.363 141.49 209.803 142.067 209.803 142.778C209.803 143.49 210.363 144.067 211.054 144.067Z" fill="white"/>
<path d="M222.092 144.951C222.783 144.951 223.343 144.374 223.343 143.662C223.343 142.951 222.783 142.374 222.092 142.374C221.401 142.374 220.841 142.951 220.841 143.662C220.841 144.374 221.401 144.951 222.092 144.951Z" fill="white"/>
<path d="M222.092 165.994C222.783 165.994 223.343 165.417 223.343 164.706C223.343 163.994 222.783 163.417 222.092 163.417C221.401 163.417 220.841 163.994 220.841 164.706C220.841 165.417 221.401 165.994 222.092 165.994Z" fill="white"/>
<path d="M224.938 154.298C225.629 154.298 226.189 153.721 226.189 153.009C226.189 152.298 225.629 151.721 224.938 151.721C224.247 151.721 223.687 152.298 223.687 153.009C223.687 153.721 224.247 154.298 224.938 154.298Z" fill="white"/>
<path d="M218.045 134.669C218.585 134.669 219.026 134.315 219.222 133.835C218.339 133.355 217.628 132.876 217.137 132.522C216.941 132.749 216.818 133.052 216.818 133.381C216.794 134.088 217.334 134.669 218.045 134.669Z" fill="white"/>
<path d="M247.26 138.054C247.951 138.054 248.511 137.477 248.511 136.766C248.511 136.054 247.951 135.478 247.26 135.478C246.569 135.478 246.009 136.054 246.009 136.766C246.009 137.477 246.569 138.054 247.26 138.054Z" fill="white"/>
<path d="M215.396 150.988C216.087 150.988 216.647 150.412 216.647 149.7C216.647 148.988 216.087 148.412 215.396 148.412C214.705 148.412 214.145 148.988 214.145 149.7C214.145 150.412 214.705 150.988 215.396 150.988Z" fill="white"/>
<path d="M208.576 127.318C208.576 128.025 209.141 128.606 209.827 128.606C210.097 128.606 210.343 128.505 210.563 128.354C210.073 127.697 209.558 127.015 209.067 126.307C208.748 126.535 208.576 126.914 208.576 127.318Z" fill="white"/>
<path d="M247.603 150.988C246.916 150.988 246.352 151.569 246.352 152.277C246.352 152.933 246.843 153.489 247.481 153.565C247.53 153.009 247.628 152.479 247.775 151.948C247.8 151.847 247.824 151.746 247.849 151.696C247.898 151.494 247.947 151.291 248.02 151.089C247.898 151.014 247.75 150.988 247.603 150.988Z" fill="white"/>
<path d="M232.297 167.838C232.988 167.838 233.548 167.261 233.548 166.55C233.548 165.838 232.988 165.261 232.297 165.261C231.606 165.261 231.046 165.838 231.046 166.55C231.046 167.261 231.606 167.838 232.297 167.838Z" fill="white"/>
<path d="M231.046 160.007C231.737 160.007 232.297 159.43 232.297 158.718C232.297 158.007 231.737 157.43 231.046 157.43C230.355 157.43 229.795 158.007 229.795 158.718C229.795 159.43 230.355 160.007 231.046 160.007Z" fill="white"/>
<path d="M236.663 170.718C236.123 170.718 235.657 171.072 235.486 171.577C236.32 171.678 237.129 171.779 237.914 171.88C237.84 171.248 237.325 170.718 236.663 170.718Z" fill="white"/>
<path d="M229.623 141.844C230.314 141.844 230.874 141.267 230.874 140.555C230.874 139.844 230.314 139.267 229.623 139.267C228.932 139.267 228.372 139.844 228.372 140.555C228.372 141.267 228.932 141.844 229.623 141.844Z" fill="white"/>
<path d="M246.647 164.049C246.549 164.023 246.45 163.998 246.352 163.998C245.665 163.998 245.101 164.579 245.101 165.287C245.101 165.969 245.592 166.499 246.23 166.575C246.377 165.691 246.524 164.857 246.647 164.049Z" fill="white"/>
<path d="M203.548 142.221C204.014 142.726 204.529 143.333 205.093 143.989C205.584 143.813 205.927 143.333 205.927 142.777C205.927 142.069 205.363 141.488 204.676 141.488C204.186 141.488 203.744 141.792 203.548 142.221Z" fill="white"/>
<path d="M251.994 141.49C251.307 141.49 250.743 142.071 250.743 142.778C250.743 143.384 251.136 143.89 251.675 144.016C252.166 143.258 252.607 142.551 252.975 141.995C252.779 141.692 252.411 141.49 251.994 141.49Z" fill="white"/>
<path d="M251.454 130.93C251.037 131.132 250.743 131.587 250.743 132.092C250.743 132.8 251.307 133.381 251.994 133.381C252.362 133.381 252.681 133.229 252.902 132.977C252.558 132.269 252.068 131.587 251.454 130.93Z" fill="white"/>
<path d="M245.101 146.643C245.792 146.643 246.352 146.067 246.352 145.355C246.352 144.643 245.792 144.067 245.101 144.067C244.41 144.067 243.85 144.643 243.85 145.355C243.85 146.067 244.41 146.643 245.101 146.643Z" fill="white"/>
<path d="M243.286 159.426C243.977 159.426 244.537 158.849 244.537 158.138C244.537 157.426 243.977 156.849 243.286 156.849C242.595 156.849 242.035 157.426 242.035 158.138C242.035 158.849 242.595 159.426 243.286 159.426Z" fill="white"/>
<path d="M240.293 141.439C240.984 141.439 241.544 140.863 241.544 140.151C241.544 139.439 240.984 138.863 240.293 138.863C239.602 138.863 239.042 139.439 239.042 140.151C239.042 140.863 239.602 141.439 240.293 141.439Z" fill="white"/>
<path d="M246.352 127.318C247.039 127.318 247.603 126.737 247.603 126.03C247.603 125.6 247.383 125.221 247.064 124.969C246.647 125.651 246.181 126.383 245.665 127.091C245.862 127.242 246.107 127.318 246.352 127.318Z" fill="white"/>
<path d="M239.558 165.994C240.248 165.994 240.809 165.417 240.809 164.706C240.809 163.994 240.248 163.417 239.558 163.417C238.867 163.417 238.307 163.994 238.307 164.706C238.307 165.417 238.867 165.994 239.558 165.994Z" fill="white"/>
<path d="M234.333 135.957C235.019 135.957 235.584 135.376 235.584 134.669C235.584 134.214 235.338 133.785 234.97 133.583C234.333 134.038 233.719 134.416 233.082 134.72C233.131 135.402 233.67 135.957 234.333 135.957Z" fill="white"/>
<path d="M233.106 148.866C233.797 148.866 234.357 148.29 234.357 147.578C234.357 146.866 233.797 146.29 233.106 146.29C232.415 146.29 231.855 146.866 231.855 147.578C231.855 148.29 232.415 148.866 233.106 148.866Z" fill="white"/>
<path d="M238.307 154.298C238.997 154.298 239.558 153.721 239.558 153.009C239.558 152.298 238.997 151.721 238.307 151.721C237.616 151.721 237.056 152.298 237.056 153.009C237.056 153.721 237.616 154.298 238.307 154.298Z" fill="white"/>
<path d="M247.162 116.657C246.401 114.409 245.175 112.388 244.292 110.19C243.924 106.426 244.218 102.612 243.163 98.9488C242.231 95.69 240.465 92.6586 237.939 90.4355C235.069 87.9093 231.365 86.4441 227.587 86.722C227.538 86.722 227.489 86.722 227.44 86.722C224.104 87.303 220.67 88.0862 217.996 90.3597C215.617 92.406 214.071 95.3111 212.869 98.2415C212.845 98.2667 212.796 98.292 212.796 98.3425C211.839 100.187 210.858 102.056 209.901 103.9C209.092 105.441 208.086 107.007 207.742 108.75C207.448 110.241 207.865 111.554 208.65 112.792C209.312 113.828 210.195 114.813 210.711 115.95C210.956 116.582 211.054 117.213 210.833 117.92C210.563 118.754 210.024 119.461 209.754 120.295C209.729 120.371 209.705 120.447 209.68 120.522C208.626 121.988 208.527 123.983 209.705 125.449C211.005 127.116 213.311 127.343 214.979 126.156C215.224 125.979 215.077 125.6 214.832 125.6C214.758 125.474 214.611 125.398 214.439 125.423C214.341 125.449 214.218 125.449 214.12 125.449C212.869 125.044 214.169 122.897 214.537 122.215C214.905 121.558 215.15 120.876 215.2 120.093C215.273 118.325 214.537 116.582 214.39 114.813C214.169 111.933 214.832 108.927 216.671 106.729C217.088 106.477 217.53 106.275 217.971 106.123C219.983 105.34 222.068 104.86 223.809 103.471C227.047 100.869 228.249 96.7005 228.74 92.6333C229.304 95.6395 230.04 98.6962 231.929 101.147C232.861 102.359 234.014 103.319 235.387 103.951C235.731 104.102 236.074 104.304 236.369 104.557C236.663 104.784 236.957 105.012 237.227 105.264C239.214 107.007 240.416 109.18 239.754 111.908C239.312 113.727 238.552 115.647 239.459 117.441C240.269 119.032 242.158 120.093 242.771 121.76C242.869 123.276 241.839 124.716 240.392 125.12C240.367 125.12 240.343 125.145 240.318 125.145C240.318 125.145 240.318 125.145 240.293 125.145C239.803 125.07 239.607 125.827 240.097 125.903C240.784 126.004 241.495 126.004 242.158 125.878C243.997 126.307 245.862 125.373 246.867 123.731C248.167 121.583 247.922 118.931 247.162 116.657ZM208.258 109.382C208.429 107.462 209.631 105.694 210.49 104.052C210.809 103.445 211.128 102.839 211.446 102.233C211.177 103.066 210.931 103.9 210.686 104.734C210.171 106.477 209.607 108.245 209.361 110.064C209.214 111.176 209.288 112.186 209.558 113.171C208.773 112.009 208.11 110.822 208.258 109.382ZM210.318 125.246C209.533 124.388 209.312 123.251 209.558 122.215C209.778 124.286 211.471 125.954 213.556 126.181C212.403 126.51 211.177 126.206 210.318 125.246ZM221.185 104.304C220.13 104.759 219.002 105.062 217.947 105.492C219.198 104.481 220.645 103.698 221.921 102.713C223.025 101.854 223.981 100.843 224.84 99.7319C226.091 98.0394 227.072 96.17 227.93 94.2501C227.121 98.4688 225.306 102.561 221.185 104.304ZM240.809 118.325C239.827 117.188 239.435 115.975 239.68 114.46C239.876 113.272 240.343 112.161 240.49 110.948C240.71 109.079 239.95 107.336 238.748 105.946C238.405 105.567 238.012 105.214 237.571 104.86C238.282 105.188 238.969 105.567 239.533 106.148C242.011 108.801 240.122 113.095 240.588 116.278C240.784 117.592 241.471 118.577 242.06 119.664C241.667 119.234 241.226 118.779 240.809 118.325ZM243.801 125.297C245.322 124.514 246.499 123.049 246.867 121.179C247.186 119.512 246.72 117.971 246.033 116.43C245.469 115.142 245.003 113.879 244.684 112.565C244.905 113.045 245.126 113.525 245.371 114.005C246.45 116.228 247.53 118.704 247.137 121.255C246.843 123.15 245.543 124.893 243.801 125.297Z" fill="url(#paint10_linear)"/>
<path d="M98.7075 334.642H81.2178C79.5498 334.642 78.2988 336.209 78.5931 337.876L84.0633 369.276C84.284 370.59 85.4124 371.55 86.688 371.55H98.7075H110.727C112.027 371.55 113.131 370.59 113.352 369.276L118.822 337.876C119.116 336.183 117.865 334.642 116.197 334.642H98.7075Z" fill="#1E254C"/>
<path d="M78.9121 276.818C77.8083 275.428 77.146 273.837 76.6554 272.119C75.7478 269.012 75.0364 265.804 72.3627 263.757C70.155 262.065 67.4322 261.459 64.8566 260.65C63.5565 260.246 62.2564 259.791 61.0545 259.109C59.5581 258.276 58.4052 257.038 57.375 255.674C56.2712 254.183 55.2654 252.592 53.8672 251.354C52.7634 250.343 51.2916 249.687 49.8198 249.535C48.4707 249.409 47.048 249.712 46.0913 250.722C45.0856 251.758 44.8158 253.274 45.0365 254.688C45.4781 257.72 47.5386 260.347 49.1575 262.823C50.752 265.273 52.3219 268.027 51.8803 271.109C51.4879 273.786 49.9179 276.136 49.6972 278.864C49.5991 280.254 49.8934 281.592 50.6293 282.754C51.4633 284.068 52.7879 284.952 54.1125 285.685C55.5353 286.468 57.0561 287.099 58.4298 287.984C59.6563 288.767 60.6865 289.803 61.5205 291.015C63.164 293.39 63.949 296.295 64.6113 299.099C66.0095 304.985 67.1133 311.452 72.2155 315.216C74.693 317.035 77.7102 318.045 80.7518 317.995C82.7878 317.97 84.7993 317.439 86.6145 316.504C91.3242 313.422 92.3789 310.315 92.3789 310.315C94.0715 305.49 94.1941 300.135 92.9431 295.158C92.2318 292.329 91.0543 289.626 89.4599 287.201C87.7428 284.573 85.5106 282.502 83.0822 280.607C81.6104 279.445 80.0895 278.283 78.9121 276.818Z" fill="url(#paint11_linear)"/>
<path d="M64.5622 273.003C65.985 271.664 66.5491 269.416 65.8623 267.522C65.6906 267.042 64.9792 267.345 65.151 267.825C65.7151 269.366 65.2736 271.235 64.1207 272.372C60.5394 267.319 56.6882 262.494 52.5672 257.872C52.2238 257.493 51.6105 257.973 51.9539 258.351C56.0749 262.949 59.9261 267.799 63.5075 272.852C63.4339 272.902 63.3603 272.953 63.2867 272.978C61.496 273.938 59.1412 273.231 58.0373 271.513C57.7675 271.084 57.1543 271.563 57.4241 271.993C58.7487 274.039 61.5941 274.822 63.7037 273.635C63.8018 273.584 63.8754 273.534 63.9735 273.483C66.0586 276.439 68.0209 279.47 69.9097 282.552C68.3398 283.058 66.5246 282.578 65.1755 281.668C64.7585 281.39 64.2924 282.022 64.7094 282.3C66.3529 283.386 68.487 283.917 70.3513 283.234C71.5532 285.205 72.7061 287.201 73.81 289.222C74.7176 290.864 75.5761 292.506 76.4101 294.173C75.0364 294.779 73.3929 294.097 72.6816 292.809C72.4363 292.354 71.823 292.859 72.0683 293.289C72.9759 294.905 75.11 295.663 76.7781 294.88C78.3234 297.987 79.7952 301.145 81.1689 304.328C79.4763 305.061 77.3422 304.581 76.2875 302.989C76.0176 302.56 75.3799 303.04 75.6742 303.469C76.9252 305.339 79.4763 305.92 81.4878 305.061C84.1615 311.376 86.4673 317.894 88.3561 324.487C90.343 331.409 91.9129 338.457 92.9922 345.606C93.0658 346.111 93.8262 346.01 93.7526 345.505C91.7903 332.798 88.4052 320.319 83.6709 308.421C83.1803 307.157 82.6652 305.92 82.1501 304.682C84.1124 303.419 85.02 300.918 84.7993 298.594C84.7502 298.088 83.9898 298.189 84.0389 298.695C84.2106 300.665 83.4747 302.838 81.8312 303.949C80.4575 300.741 78.9857 297.583 77.4158 294.476C78.7159 293.465 79.231 291.571 78.6423 289.979C78.4706 289.499 77.7347 289.803 77.9309 290.283C78.3725 291.47 78.0045 292.96 77.0724 293.769C75.2081 290.08 73.1967 286.443 71.0626 282.906C71.0871 282.881 71.1362 282.856 71.1607 282.856C72.9269 281.769 73.9571 279.344 73.025 277.348C72.8042 276.894 72.0929 277.172 72.3136 277.652C73.0741 279.319 72.191 281.39 70.6456 282.249C70.6456 282.249 70.6456 282.249 70.6211 282.249C69.0757 279.723 67.4813 277.247 65.8133 274.797C65.3962 274.191 64.9792 273.584 64.5622 273.003Z" fill="#E1F7FF"/>
<path d="M111.561 271.336C111.169 269.366 111.34 267.446 111.708 265.475C112.371 261.913 113.303 258.352 111.708 254.891C110.384 252.036 107.98 249.939 105.846 247.742C104.766 246.63 103.712 245.493 102.853 244.18C101.774 242.538 101.283 240.693 100.964 238.774C100.621 236.702 100.425 234.58 99.7133 232.61C99.1246 231.018 97.9962 229.578 96.6226 228.644C95.347 227.785 93.8016 227.33 92.3053 227.81C90.7845 228.315 89.7542 229.654 89.2391 231.17C88.1353 234.429 88.8466 238.117 89.19 241.451C89.5335 244.735 89.6806 248.323 87.6692 251.127C85.9276 253.552 83.1557 255.068 81.5858 257.619C80.7763 258.933 80.3839 260.423 80.531 261.989C80.7027 263.732 81.5613 265.324 82.4934 266.764C83.4991 268.305 84.6766 269.745 85.5842 271.387C86.3936 272.827 86.9088 274.393 87.1295 276.06C87.5465 279.294 86.8352 282.603 86.0748 285.735C84.4803 292.304 82.2726 299.301 85.4125 305.793C86.9333 308.926 89.4108 311.553 92.4525 313.145C94.4639 314.206 96.7452 314.761 99.0265 314.837C105.257 314.307 107.882 311.806 107.882 311.806C112.027 307.941 114.848 302.711 116.148 297.103C116.884 293.92 117.105 290.611 116.761 287.352C116.394 283.816 115.241 280.582 113.793 277.374C112.91 275.403 112.003 273.433 111.561 271.336Z" fill="url(#paint12_linear)"/>
<path d="M99.2963 259.817C101.406 259.261 103.074 257.316 103.368 255.093C103.442 254.512 102.583 254.436 102.51 254.992C102.289 256.836 100.891 258.427 99.1736 258.932C98.1924 252.011 96.8433 245.139 95.1017 238.369C94.9545 237.814 94.0959 237.965 94.2431 238.521C95.9847 245.291 97.3339 252.162 98.3151 259.109C98.2169 259.109 98.1188 259.109 98.0207 259.109C95.7394 259.084 93.8016 257.139 93.5563 254.84C93.5072 254.259 92.6487 254.411 92.6978 254.992C92.9676 257.72 95.396 260.044 98.0943 259.993C98.2169 259.993 98.3151 259.993 98.4377 259.968C99.0019 264.01 99.4189 268.077 99.7133 272.17C97.8981 271.816 96.3527 270.376 95.4696 268.759C95.1998 268.254 94.4148 268.633 94.6847 269.138C95.764 271.083 97.6037 272.776 99.7869 273.104C99.9586 275.706 100.081 278.308 100.155 280.91C100.204 283.007 100.228 285.104 100.228 287.226C98.5604 287.074 97.2848 285.533 97.2358 283.866C97.2112 283.285 96.3527 283.437 96.3772 284.018C96.4508 286.114 98.1679 288.009 100.228 288.135C100.204 292.051 100.032 295.966 99.7623 299.857C97.7264 299.655 95.8376 298.038 95.6168 295.891C95.5432 295.31 94.7092 295.461 94.7583 296.042C95.0526 298.568 97.2848 300.539 99.7133 300.741C99.1491 308.446 98.1188 316.125 96.647 323.704C95.1017 331.636 93.0412 339.467 90.5146 347.122C90.3429 347.652 91.1524 347.981 91.3241 347.45C95.8376 333.809 98.8057 319.637 100.204 305.288C100.351 303.772 100.474 302.282 100.596 300.766C103.172 300.564 105.355 298.594 106.312 296.169C106.533 295.638 105.723 295.31 105.502 295.84C104.693 297.886 102.829 299.629 100.645 299.857C100.915 295.941 101.062 292.026 101.111 288.085C102.902 287.782 104.398 286.19 104.595 284.295C104.668 283.714 103.81 283.639 103.736 284.194C103.564 285.634 102.461 286.872 101.111 287.175C101.136 282.502 100.989 277.828 100.67 273.18C100.719 273.18 100.768 273.18 100.817 273.18C103.123 273.079 105.355 271.185 105.478 268.734C105.502 268.153 104.644 268.052 104.619 268.633C104.521 270.705 102.608 272.271 100.645 272.296H100.621C100.376 268.961 100.057 265.652 99.6397 262.343C99.4925 261.459 99.3944 260.625 99.2963 259.817Z" fill="#6373E5"/>
<path d="M135.603 292.985C135.921 291.394 136.682 290.03 137.565 288.716C139.184 286.316 140.999 283.992 140.925 280.91C140.852 278.359 139.748 276.009 138.89 273.66C138.448 272.473 138.031 271.285 137.81 270.022C137.54 268.456 137.761 266.915 138.129 265.399C138.546 263.757 139.061 262.115 139.159 260.423C139.233 259.059 138.865 257.619 138.154 256.457C137.491 255.396 136.486 254.537 135.235 254.385C133.959 254.234 132.757 254.89 131.899 255.825C130.059 257.846 129.396 260.827 128.587 263.378C127.778 265.93 126.772 268.608 124.392 269.997C122.332 271.21 119.83 271.387 117.818 272.725C116.813 273.407 116.028 274.393 115.66 275.58C115.218 276.919 115.365 278.384 115.586 279.773C115.832 281.264 116.249 282.729 116.396 284.22C116.543 285.558 116.42 286.897 116.052 288.186C115.316 290.712 113.771 292.91 112.201 294.956C108.939 299.276 105.088 303.671 105.333 309.532C105.455 312.361 106.437 315.14 108.178 317.338C109.331 318.803 110.827 319.99 112.495 320.799C117.254 322.517 120.002 321.557 120.002 321.557C124.294 320.091 128.047 317.212 130.77 313.498C132.316 311.401 133.542 309.027 134.327 306.501C135.186 303.772 135.357 300.993 135.308 298.139C135.308 296.421 135.259 294.678 135.603 292.985Z" fill="url(#paint13_linear)"/>
<path d="M130.228 280.329C131.97 280.632 133.81 279.773 134.742 278.207C134.987 277.802 134.374 277.449 134.129 277.853C133.368 279.116 131.847 279.849 130.425 279.647C131.896 274.215 133.098 268.683 133.981 263.1C134.055 262.645 133.368 262.468 133.295 262.923C132.412 268.506 131.234 274.038 129.738 279.47C129.664 279.444 129.591 279.419 129.517 279.369C127.849 278.586 127.04 276.489 127.579 274.72C127.726 274.291 127.04 274.089 126.892 274.544C126.23 276.666 127.26 279.167 129.272 280.051C129.345 280.076 129.443 280.126 129.517 280.152C128.634 283.335 127.653 286.467 126.573 289.574C125.347 288.69 124.66 287.124 124.513 285.608C124.464 285.154 123.777 285.154 123.826 285.608C123.998 287.402 124.832 289.271 126.328 290.257C125.641 292.227 124.905 294.197 124.121 296.143C123.507 297.709 122.845 299.275 122.158 300.816C120.981 300.134 120.539 298.568 121.03 297.33C121.201 296.9 120.515 296.724 120.343 297.153C119.73 298.719 120.392 300.715 121.864 301.498C120.588 304.378 119.239 307.207 117.792 309.986C116.345 309.152 115.486 307.334 115.977 305.666C116.099 305.212 115.437 305.035 115.29 305.489C114.701 307.46 115.731 309.658 117.448 310.618C114.578 316.099 111.39 321.43 107.882 326.507C104.227 331.838 100.229 336.915 95.9113 341.715C95.617 342.043 96.1076 342.574 96.4019 342.22C104.08 333.682 110.776 324.234 116.345 314.129C116.933 313.068 117.497 312.007 118.062 310.921C120.024 311.653 122.256 310.921 123.753 309.456C124.071 309.127 123.581 308.622 123.262 308.95C122.011 310.188 120.098 310.845 118.405 310.289C119.852 307.485 121.201 304.656 122.477 301.776C123.9 302.155 125.494 301.498 126.255 300.159C126.475 299.755 125.887 299.401 125.641 299.806C125.077 300.816 123.851 301.346 122.747 301.119C124.243 297.684 125.617 294.197 126.868 290.635C126.892 290.661 126.941 290.661 126.966 290.686C128.708 291.393 130.94 290.762 131.823 288.968C132.019 288.564 131.43 288.185 131.21 288.614C130.474 290.105 128.56 290.61 127.113 289.979C127.113 289.979 127.113 289.979 127.089 289.979C127.972 287.452 128.781 284.876 129.542 282.299C129.86 281.617 130.032 280.985 130.228 280.329Z" fill="#E1F7FF"/>
<path d="M98.7076 328.049H80.1386C78.3724 328.049 77.0233 329.691 77.3422 331.485L83.1557 364.83C83.401 366.22 84.5784 367.23 85.9521 367.23H98.7076H111.463C112.837 367.23 114.014 366.22 114.259 364.83L120.073 331.485C120.392 329.691 119.043 328.049 117.277 328.049H98.7076Z" fill="url(#paint14_linear)"/>
<defs>
<linearGradient id="paint0_linear" x1="222.939" y1="0" x2="222.939" y2="432.975" gradientUnits="userSpaceOnUse">
<stop offset="0.145833" stop-color="#17E6E6"/>
<stop offset="0.697917" stop-color="#54498F" stop-opacity="0"/>
</linearGradient>
<radialGradient id="paint1_radial" cx="0" cy="0" r="1" gradientUnits="userSpaceOnUse" gradientTransform="translate(209.045 375.766) rotate(0.254593) scale(98.2192 101.151)">
<stop stop-color="#00C0C0"/>
</radialGradient>
<linearGradient id="paint2_linear" x1="199.498" y1="149.235" x2="215.396" y2="46.3163" gradientUnits="userSpaceOnUse">
<stop stop-color="#F66F6C"/>
<stop offset="1" stop-color="#EA5460"/>
</linearGradient>
<linearGradient id="paint3_linear" x1="255.709" y1="149.235" x2="239.811" y2="46.3164" gradientUnits="userSpaceOnUse">
<stop stop-color="#F66F6C"/>
<stop offset="1" stop-color="#EA5460"/>
</linearGradient>
<linearGradient id="paint4_linear" x1="188.681" y1="260.172" x2="198.079" y2="199.33" gradientUnits="userSpaceOnUse">
<stop stop-color="#F66F6C"/>
<stop offset="1" stop-color="#EA5460"/>
</linearGradient>
<linearGradient id="paint5_linear" x1="208.52" y1="368.485" x2="246.985" y2="119.475" gradientUnits="userSpaceOnUse">
<stop stop-color="#F66F6C"/>
<stop offset="1" stop-color="#EA5460"/>
</linearGradient>
<linearGradient id="paint6_linear" x1="227.873" y1="112.86" x2="227.713" y2="75.0613" gradientUnits="userSpaceOnUse">
<stop stop-color="#F66F6C"/>
<stop offset="1" stop-color="#EA5460"/>
</linearGradient>
<linearGradient id="paint7_linear" x1="227.821" y1="208.615" x2="227.821" y2="307.38" gradientUnits="userSpaceOnUse">
<stop stop-color="#3C9696"/>
<stop offset="1" stop-color="#31409B"/>
</linearGradient>
<linearGradient id="paint8_linear" x1="193.476" y1="225.156" x2="182.226" y2="258.301" gradientUnits="userSpaceOnUse">
<stop stop-color="#3C9696"/>
<stop offset="1" stop-color="#31409B"/>
</linearGradient>
<linearGradient id="paint9_linear" x1="227.964" y1="145.195" x2="227.964" y2="193.73" gradientUnits="userSpaceOnUse">
<stop stop-color="#B8E5FC"/>
<stop offset="1" stop-color="#7CB0E8"/>
</linearGradient>
<linearGradient id="paint10_linear" x1="227.727" y1="98.0769" x2="227.727" y2="139.4" gradientUnits="userSpaceOnUse">
<stop stop-color="#252C63"/>
<stop offset="1" stop-color="#1E254C"/>
</linearGradient>
<linearGradient id="paint11_linear" x1="44.5296" y1="251.875" x2="75.1545" y2="291.255" gradientUnits="userSpaceOnUse">
<stop stop-color="#A1ECEC"/>
<stop offset="0.5878" stop-color="#68DBB2"/>
<stop offset="1" stop-color="#92C5A0"/>
</linearGradient>
<linearGradient id="paint12_linear" x1="93.5819" y1="249.746" x2="102.871" y2="305.428" gradientUnits="userSpaceOnUse">
<stop stop-color="#3D49BF"/>
<stop offset="1" stop-color="#31409B"/>
</linearGradient>
<linearGradient id="paint13_linear" x1="133.595" y1="253.88" x2="121.689" y2="297.791" gradientUnits="userSpaceOnUse">
<stop stop-color="#44FF78"/>
<stop offset="0.567708" stop-color="#58C263"/>
<stop offset="0.5878" stop-color="#96C7F1"/>
<stop offset="1" stop-color="#86A08C"/>
</linearGradient>
<linearGradient id="paint14_linear" x1="98.7018" y1="338.589" x2="98.7018" y2="359.649" gradientUnits="userSpaceOnUse">
<stop stop-color="#F66F6C"/>
<stop offset="1" stop-color="#EA5460"/>
</linearGradient>
</defs>
</svg>
